<?xml version="1.0" encoding="UTF-8" standalone="no"?>
<!DOCTYPE svg PUBLIC "-//W3C//DTD SVG 1.1//EN"
 "http://www.w3.org/Graphics/SVG/1.1/DTD/svg11.dtd">
<!-- Generated by graphviz version 2.38.0 (20140413.2041)
 -->
<!-- Title: ERD Pages: 1 -->
<svg width="4174pt" height="836pt"
 viewBox="0.00 0.00 4174.04 836.00" xmlns="http://www.w3.org/2000/svg" xmlns:xlink="http://www.w3.org/1999/xlink">
<g id="graph0" class="graph" transform="scale(1 1) rotate(0) translate(4 832)">
<title>ERD</title>
<polygon fill="white" stroke="none" points="-4,4 -4,-832 4170.04,-832 4170.04,4 -4,4"/>
<!-- airlines -->
<g id="node1" class="node"><title>airlines</title>
<polygon fill="none" stroke="black" points="456.743,-684 401.743,-684 401.743,-648 456.743,-648 456.743,-684"/>
<text text-anchor="middle" x="429.243" y="-662.3" font-family="Times New Roman,serif" font-size="14.00">airlines</text>
</g>
<!-- airlines_id_PK_NN -->
<g id="node2" class="node"><title>airlines_id_PK_NN</title>
<ellipse fill="none" stroke="black" cx="81.2428" cy="-594" rx="81.4863" ry="18"/>
<text text-anchor="middle" x="81.2428" y="-590.3" font-family="Times New Roman,serif" font-size="14.00">airlines_id_PK_NN</text>
</g>
<!-- airlines&#45;&#45;airlines_id_PK_NN -->
<g id="edge1" class="edge"><title>airlines&#45;&#45;airlines_id_PK_NN</title>
<path fill="none" stroke="black" d="M401.645,-659.449C345.138,-648.082 215.207,-621.947 139.3,-606.678"/>
</g>
<!-- airlines_name_NN -->
<g id="node3" class="node"><title>airlines_name_NN</title>
<ellipse fill="none" stroke="black" cx="258.243" cy="-594" rx="77.1866" ry="18"/>
<text text-anchor="middle" x="258.243" y="-590.3" font-family="Times New Roman,serif" font-size="14.00">airlines_name_NN</text>
</g>
<!-- airlines&#45;&#45;airlines_name_NN -->
<g id="edge2" class="edge"><title>airlines&#45;&#45;airlines_name_NN</title>
<path fill="none" stroke="black" d="M401.388,-653.597C372.334,-641.704 326.657,-623.006 294.737,-609.939"/>
</g>
<!-- planefleet_airline0 -->
<g id="node4" class="node"><title>planefleet_airline0</title>
<ellipse fill="none" stroke="black" cx="429.243" cy="-594" rx="75.2868" ry="18"/>
<text text-anchor="middle" x="429.243" y="-590.3" font-family="Times New Roman,serif" font-size="14.00">planefleet_airline0</text>
</g>
<!-- airlines&#45;&#45;planefleet_airline0 -->
<g id="edge3" class="edge"><title>airlines&#45;&#45;planefleet_airline0</title>
<path fill="none" stroke="black" d="M429.243,-647.697C429.243,-636.846 429.243,-622.917 429.243,-612.104"/>
</g>
<!-- airlinesANDplanefleet -->
<g id="node57" class="node"><title>airlinesANDplanefleet</title>
<polygon fill="none" stroke="black" points="648.243,-612 522.394,-594 648.243,-576 774.092,-594 648.243,-612"/>
<text text-anchor="middle" x="648.243" y="-590.3" font-family="Times New Roman,serif" font-size="14.00">airlinesANDplanefleet</text>
</g>
<!-- airlines&#45;&#45;airlinesANDplanefleet -->
<g id="edge47" class="edge"><title>airlines&#45;&#45;airlinesANDplanefleet</title>
<path fill="none" stroke="black" d="M456.979,-656.134C496.112,-643.626 567.615,-620.771 611.24,-606.828"/>
</g>
<!-- airports -->
<g id="node5" class="node"><title>airports</title>
<polygon fill="none" stroke="black" points="1179.74,-684 1120.74,-684 1120.74,-648 1179.74,-648 1179.74,-684"/>
<text text-anchor="middle" x="1150.24" y="-662.3" font-family="Times New Roman,serif" font-size="14.00">airports</text>
</g>
<!-- airports_airportcode_PK_NN -->
<g id="node6" class="node"><title>airports_airportcode_PK_NN</title>
<ellipse fill="none" stroke="black" cx="950.243" cy="-594" rx="119.679" ry="18"/>
<text text-anchor="middle" x="950.243" y="-590.3" font-family="Times New Roman,serif" font-size="14.00">airports_airportcode_PK_NN</text>
</g>
<!-- airports&#45;&#45;airports_airportcode_PK_NN -->
<g id="edge4" class="edge"><title>airports&#45;&#45;airports_airportcode_PK_NN</title>
<path fill="none" stroke="black" d="M1120.73,-654.671C1087.7,-643.11 1033.79,-624.241 995.438,-610.818"/>
</g>
<!-- airports_name -->
<g id="node7" class="node"><title>airports_name</title>
<ellipse fill="none" stroke="black" cx="1150.24" cy="-594" rx="62.2891" ry="18"/>
<text text-anchor="middle" x="1150.24" y="-590.3" font-family="Times New Roman,serif" font-size="14.00">airports_name</text>
</g>
<!-- airports&#45;&#45;airports_name -->
<g id="edge5" class="edge"><title>airports&#45;&#45;airports_name</title>
<path fill="none" stroke="black" d="M1150.24,-647.697C1150.24,-636.846 1150.24,-622.917 1150.24,-612.104"/>
</g>
<!-- airports_country_NN -->
<g id="node8" class="node"><title>airports_country_NN</title>
<ellipse fill="none" stroke="black" cx="1319.24" cy="-594" rx="89.0842" ry="18"/>
<text text-anchor="middle" x="1319.24" y="-590.3" font-family="Times New Roman,serif" font-size="14.00">airports_country_NN</text>
</g>
<!-- airports&#45;&#45;airports_country_NN -->
<g id="edge6" class="edge"><title>airports&#45;&#45;airports_country_NN</title>
<path fill="none" stroke="black" d="M1180.07,-652.647C1208.5,-640.872 1251.39,-623.104 1282.04,-610.409"/>
</g>
<!-- flights_departure_airport1 -->
<g id="node9" class="node"><title>flights_departure_airport1</title>
<ellipse fill="none" stroke="black" cx="1531.24" cy="-594" rx="104.782" ry="18"/>
<text text-anchor="middle" x="1531.24" y="-590.3" font-family="Times New Roman,serif" font-size="14.00">flights_departure_airport1</text>
</g>
<!-- airports&#45;&#45;flights_departure_airport1 -->
<g id="edge7" class="edge"><title>airports&#45;&#45;flights_departure_airport1</title>
<path fill="none" stroke="black" d="M1179.82,-659.565C1240.05,-648.499 1378.33,-623.094 1462.36,-607.656"/>
</g>
<!-- flights_destination_airport1 -->
<g id="node10" class="node"><title>flights_destination_airport1</title>
<ellipse fill="none" stroke="black" cx="1763.24" cy="-594" rx="109.681" ry="18"/>
<text text-anchor="middle" x="1763.24" y="-590.3" font-family="Times New Roman,serif" font-size="14.00">flights_destination_airport1</text>
</g>
<!-- airports&#45;&#45;flights_destination_airport1 -->
<g id="edge8" class="edge"><title>airports&#45;&#45;flights_destination_airport1</title>
<path fill="none" stroke="black" d="M1179.86,-662.209C1256.75,-654.88 1469.01,-634.121 1645.24,-612 1658.08,-610.389 1671.68,-608.551 1684.91,-606.693"/>
</g>
<!-- airportsANDflights -->
<g id="node58" class="node"><title>airportsANDflights</title>
<polygon fill="none" stroke="black" points="802.243,-540 689.968,-522 802.243,-504 914.517,-522 802.243,-540"/>
<text text-anchor="middle" x="802.243" y="-518.3" font-family="Times New Roman,serif" font-size="14.00">airportsANDflights</text>
</g>
<!-- airports&#45;&#45;airportsANDflights -->
<g id="edge49" class="edge"><title>airports&#45;&#45;airportsANDflights</title>
<path fill="none" stroke="black" d="M1120.6,-664.369C1047.99,-662.196 864.065,-652.708 821.243,-612 801.662,-593.385 799.762,-559.928 800.66,-539.763"/>
</g>
<!-- countries -->
<g id="node11" class="node"><title>countries</title>
<polygon fill="none" stroke="black" points="1318.24,-828 1250.24,-828 1250.24,-792 1318.24,-792 1318.24,-828"/>
<text text-anchor="middle" x="1284.24" y="-806.3" font-family="Times New Roman,serif" font-size="14.00">countries</text>
</g>
<!-- countries_code_PK_NN -->
<g id="node12" class="node"><title>countries_code_PK_NN</title>
<ellipse fill="none" stroke="black" cx="1284.24" cy="-738" rx="100.983" ry="18"/>
<text text-anchor="middle" x="1284.24" y="-734.3" font-family="Times New Roman,serif" font-size="14.00">countries_code_PK_NN</text>
</g>
<!-- countries&#45;&#45;countries_code_PK_NN -->
<g id="edge9" class="edge"><title>countries&#45;&#45;countries_code_PK_NN</title>
<path fill="none" stroke="black" d="M1284.24,-791.697C1284.24,-780.846 1284.24,-766.917 1284.24,-756.104"/>
</g>
<!-- airlines_country2 -->
<g id="node13" class="node"><title>airlines_country2</title>
<ellipse fill="none" stroke="black" cx="1476.24" cy="-738" rx="72.5877" ry="18"/>
<text text-anchor="middle" x="1476.24" y="-734.3" font-family="Times New Roman,serif" font-size="14.00">airlines_country2</text>
</g>
<!-- countries&#45;&#45;airlines_country2 -->
<g id="edge10" class="edge"><title>countries&#45;&#45;airlines_country2</title>
<path fill="none" stroke="black" d="M1318.57,-796.485C1351.9,-784.334 1402.43,-765.912 1437.26,-753.214"/>
</g>
<!-- airports_country2 -->
<g id="node14" class="node"><title>airports_country2</title>
<ellipse fill="none" stroke="black" cx="1642.24" cy="-738" rx="75.2868" ry="18"/>
<text text-anchor="middle" x="1642.24" y="-734.3" font-family="Times New Roman,serif" font-size="14.00">airports_country2</text>
</g>
<!-- countries&#45;&#45;airports_country2 -->
<g id="edge11" class="edge"><title>countries&#45;&#45;airports_country2</title>
<path fill="none" stroke="black" d="M1318.43,-802.484C1370.3,-792.577 1471.98,-773.072 1558.24,-756 1567.44,-754.18 1577.19,-752.227 1586.68,-750.315"/>
</g>
<!-- countriesANDairlines -->
<g id="node59" class="node"><title>countriesANDairlines</title>
<polygon fill="none" stroke="black" points="654.243,-756 530.07,-738 654.243,-720 778.415,-738 654.243,-756"/>
<text text-anchor="middle" x="654.243" y="-734.3" font-family="Times New Roman,serif" font-size="14.00">countriesANDairlines</text>
</g>
<!-- countries&#45;&#45;countriesANDairlines -->
<g id="edge51" class="edge"><title>countries&#45;&#45;countriesANDairlines</title>
<path fill="none" stroke="black" d="M1249.92,-805.187C1149.33,-794.01 853.942,-761.189 720.737,-746.388"/>
</g>
<!-- countriesANDairports -->
<g id="node60" class="node"><title>countriesANDairports</title>
<polygon fill="none" stroke="black" points="1037.24,-756 908.379,-738 1037.24,-720 1166.11,-738 1037.24,-756"/>
<text text-anchor="middle" x="1037.24" y="-734.3" font-family="Times New Roman,serif" font-size="14.00">countriesANDairports</text>
</g>
<!-- countries&#45;&#45;countriesANDairports -->
<g id="edge53" class="edge"><title>countries&#45;&#45;countriesANDairports</title>
<path fill="none" stroke="black" d="M1250.16,-799.34C1205.03,-786.551 1125.57,-764.032 1077.53,-750.416"/>
</g>
<!-- flights -->
<g id="node15" class="node"><title>flights</title>
<polygon fill="none" stroke="black" points="1471.24,-396 1417.24,-396 1417.24,-360 1471.24,-360 1471.24,-396"/>
<text text-anchor="middle" x="1444.24" y="-374.3" font-family="Times New Roman,serif" font-size="14.00">flights</text>
</g>
<!-- flights_airline_PK_NN -->
<g id="node16" class="node"><title>flights_airline_PK_NN</title>
<ellipse fill="none" stroke="black" cx="551.243" cy="-306" rx="92.8835" ry="18"/>
<text text-anchor="middle" x="551.243" y="-302.3" font-family="Times New Roman,serif" font-size="14.00">flights_airline_PK_NN</text>
</g>
<!-- flights&#45;&#45;flights_airline_PK_NN -->
<g id="edge12" class="edge"><title>flights&#45;&#45;flights_airline_PK_NN</title>
<path fill="none" stroke="black" d="M1417.18,-376.151C1316.15,-372.777 951.61,-358.775 653.243,-324 641.295,-322.608 628.615,-320.779 616.404,-318.839"/>
</g>
<!-- flights_flightnr_PK_NN -->
<g id="node17" class="node"><title>flights_flightnr_PK_NN</title>
<ellipse fill="none" stroke="black" cx="759.243" cy="-306" rx="96.6831" ry="18"/>
<text text-anchor="middle" x="759.243" y="-302.3" font-family="Times New Roman,serif" font-size="14.00">flights_flightnr_PK_NN</text>
</g>
<!-- flights&#45;&#45;flights_flightnr_PK_NN -->
<g id="edge13" class="edge"><title>flights&#45;&#45;flights_flightnr_PK_NN</title>
<path fill="none" stroke="black" d="M1417.04,-375.168C1334.09,-369.44 1077.06,-350.649 865.243,-324 853.223,-322.488 840.473,-320.648 828.139,-318.743"/>
</g>
<!-- flights_departure_time_NN -->
<g id="node18" class="node"><title>flights_departure_time_NN</title>
<ellipse fill="none" stroke="black" cx="983.243" cy="-306" rx="109.381" ry="18"/>
<text text-anchor="middle" x="983.243" y="-302.3" font-family="Times New Roman,serif" font-size="14.00">flights_departure_time_NN</text>
</g>
<!-- flights&#45;&#45;flights_departure_time_NN -->
<g id="edge14" class="edge"><title>flights&#45;&#45;flights_departure_time_NN</title>
<path fill="none" stroke="black" d="M1417.13,-372.883C1348.51,-362.464 1166,-334.751 1060.84,-318.783"/>
</g>
<!-- flights_departure_airport -->
<g id="node19" class="node"><title>flights_departure_airport</title>
<ellipse fill="none" stroke="black" cx="1211.24" cy="-306" rx="100.983" ry="18"/>
<text text-anchor="middle" x="1211.24" y="-302.3" font-family="Times New Roman,serif" font-size="14.00">flights_departure_airport</text>
</g>
<!-- flights&#45;&#45;flights_departure_airport -->
<g id="edge15" class="edge"><title>flights&#45;&#45;flights_departure_airport</title>
<path fill="none" stroke="black" d="M1417.06,-368.833C1378.76,-357.328 1308.29,-336.157 1260.61,-321.83"/>
</g>
<!-- flights_destination_time_NN -->
<g id="node20" class="node"><title>flights_destination_time_NN</title>
<ellipse fill="none" stroke="black" cx="1444.24" cy="-306" rx="114.28" ry="18"/>
<text text-anchor="middle" x="1444.24" y="-302.3" font-family="Times New Roman,serif" font-size="14.00">flights_destination_time_NN</text>
</g>
<!-- flights&#45;&#45;flights_destination_time_NN -->
<g id="edge16" class="edge"><title>flights&#45;&#45;flights_destination_time_NN</title>
<path fill="none" stroke="black" d="M1444.24,-359.697C1444.24,-348.846 1444.24,-334.917 1444.24,-324.104"/>
</g>
<!-- flights_destination_airport -->
<g id="node21" class="node"><title>flights_destination_airport</title>
<ellipse fill="none" stroke="black" cx="1682.24" cy="-306" rx="105.082" ry="18"/>
<text text-anchor="middle" x="1682.24" y="-302.3" font-family="Times New Roman,serif" font-size="14.00">flights_destination_airport</text>
</g>
<!-- flights&#45;&#45;flights_destination_airport -->
<g id="edge17" class="edge"><title>flights&#45;&#45;flights_destination_airport</title>
<path fill="none" stroke="black" d="M1471.54,-368.97C1510.49,-357.514 1582.7,-336.277 1631.6,-321.895"/>
</g>
<!-- passengers_airline3 -->
<g id="node22" class="node"><title>passengers_airline3</title>
<ellipse fill="none" stroke="black" cx="1887.24" cy="-306" rx="81.4863" ry="18"/>
<text text-anchor="middle" x="1887.24" y="-302.3" font-family="Times New Roman,serif" font-size="14.00">passengers_airline3</text>
</g>
<!-- flights&#45;&#45;passengers_airline3 -->
<g id="edge18" class="edge"><title>flights&#45;&#45;passengers_airline3</title>
<path fill="none" stroke="black" d="M1471.68,-373.205C1531,-364.925 1675.58,-344.348 1796.24,-324 1806.54,-322.263 1817.48,-320.312 1828.07,-318.368"/>
</g>
<!-- passengers_flightnr3 -->
<g id="node23" class="node"><title>passengers_flightnr3</title>
<ellipse fill="none" stroke="black" cx="2071.24" cy="-306" rx="85.2851" ry="18"/>
<text text-anchor="middle" x="2071.24" y="-302.3" font-family="Times New Roman,serif" font-size="14.00">passengers_flightnr3</text>
</g>
<!-- flights&#45;&#45;passengers_flightnr3 -->
<g id="edge19" class="edge"><title>flights&#45;&#45;passengers_flightnr3</title>
<path fill="none" stroke="black" d="M1471.51,-375.061C1550.2,-369.302 1784.31,-350.995 1977.24,-324 1988.08,-322.483 1999.58,-320.619 2010.68,-318.686"/>
</g>
<!-- flightsANDpassengers -->
<g id="node61" class="node"><title>flightsANDpassengers</title>
<polygon fill="none" stroke="black" points="2304.24,-324 2174.54,-306 2304.24,-288 2433.95,-306 2304.24,-324"/>
<text text-anchor="middle" x="2304.24" y="-302.3" font-family="Times New Roman,serif" font-size="14.00">flightsANDpassengers</text>
</g>
<!-- flights&#45;&#45;flightsANDpassengers -->
<g id="edge55" class="edge"><title>flights&#45;&#45;flightsANDpassengers</title>
<path fill="none" stroke="black" d="M1471.46,-375.475C1566.88,-370.027 1895.11,-350.431 2165.24,-324 2190.16,-321.561 2217.53,-318.333 2241.35,-315.345"/>
</g>
<!-- freightplanes -->
<g id="node24" class="node"><title>freightplanes</title>
<polygon fill="none" stroke="black" points="2503.74,-540 2416.74,-540 2416.74,-504 2503.74,-504 2503.74,-540"/>
<text text-anchor="middle" x="2460.24" y="-518.3" font-family="Times New Roman,serif" font-size="14.00">freightplanes</text>
</g>
<!-- freightplanes_id_PK_NN -->
<g id="node25" class="node"><title>freightplanes_id_PK_NN</title>
<ellipse fill="none" stroke="black" cx="2460.24" cy="-450" rx="102.882" ry="18"/>
<text text-anchor="middle" x="2460.24" y="-446.3" font-family="Times New Roman,serif" font-size="14.00">freightplanes_id_PK_NN</text>
</g>
<!-- freightplanes&#45;&#45;freightplanes_id_PK_NN -->
<g id="edge20" class="edge"><title>freightplanes&#45;&#45;freightplanes_id_PK_NN</title>
<path fill="none" stroke="black" d="M2460.24,-503.697C2460.24,-492.846 2460.24,-478.917 2460.24,-468.104"/>
</g>
<!-- passengerplanes -->
<g id="node26" class="node"><title>passengerplanes</title>
<polygon fill="none" stroke="black" points="2829.74,-540 2722.74,-540 2722.74,-504 2829.74,-504 2829.74,-540"/>
<text text-anchor="middle" x="2776.24" y="-518.3" font-family="Times New Roman,serif" font-size="14.00">passengerplanes</text>
</g>
<!-- passengerplanes_id_PK_NN -->
<g id="node27" class="node"><title>passengerplanes_id_PK_NN</title>
<ellipse fill="none" stroke="black" cx="2736.24" cy="-450" rx="115.88" ry="18"/>
<text text-anchor="middle" x="2736.24" y="-446.3" font-family="Times New Roman,serif" font-size="14.00">passengerplanes_id_PK_NN</text>
</g>
<!-- passengerplanes&#45;&#45;passengerplanes_id_PK_NN -->
<g id="edge21" class="edge"><title>passengerplanes&#45;&#45;passengerplanes_id_PK_NN</title>
<path fill="none" stroke="black" d="M2766.36,-503.697C2760.15,-492.846 2752.2,-478.917 2746.02,-468.104"/>
</g>
<!-- passengerplanes_maxseats -->
<g id="node28" class="node"><title>passengerplanes_maxseats</title>
<ellipse fill="none" stroke="black" cx="2978.24" cy="-450" rx="107.781" ry="18"/>
<text text-anchor="middle" x="2978.24" y="-446.3" font-family="Times New Roman,serif" font-size="14.00">passengerplanes_maxseats</text>
</g>
<!-- passengerplanes&#45;&#45;passengerplanes_maxseats -->
<g id="edge22" class="edge"><title>passengerplanes&#45;&#45;passengerplanes_maxseats</title>
<path fill="none" stroke="black" d="M2825.4,-503.966C2858.45,-492.513 2901.66,-477.539 2933.7,-466.435"/>
</g>
<!-- passengers -->
<g id="node29" class="node"><title>passengers</title>
<polygon fill="none" stroke="black" points="2343.24,-252 2265.24,-252 2265.24,-216 2343.24,-216 2343.24,-252"/>
<text text-anchor="middle" x="2304.24" y="-230.3" font-family="Times New Roman,serif" font-size="14.00">passengers</text>
</g>
<!-- passengers_id_PK_NN -->
<g id="node30" class="node"><title>passengers_id_PK_NN</title>
<ellipse fill="none" stroke="black" cx="1815.24" cy="-162" rx="96.6831" ry="18"/>
<text text-anchor="middle" x="1815.24" y="-158.3" font-family="Times New Roman,serif" font-size="14.00">passengers_id_PK_NN</text>
</g>
<!-- passengers&#45;&#45;passengers_id_PK_NN -->
<g id="edge23" class="edge"><title>passengers&#45;&#45;passengers_id_PK_NN</title>
<path fill="none" stroke="black" d="M2265.06,-227.86C2195.68,-218.698 2046.72,-198.742 1921.24,-180 1909.63,-178.265 1897.31,-176.355 1885.34,-174.46"/>
</g>
<!-- passengers_firstname -->
<g id="node31" class="node"><title>passengers_firstname</title>
<ellipse fill="none" stroke="black" cx="2019.24" cy="-162" rx="89.0842" ry="18"/>
<text text-anchor="middle" x="2019.24" y="-158.3" font-family="Times New Roman,serif" font-size="14.00">passengers_firstname</text>
</g>
<!-- passengers&#45;&#45;passengers_firstname -->
<g id="edge24" class="edge"><title>passengers&#45;&#45;passengers_firstname</title>
<path fill="none" stroke="black" d="M2265.21,-223.414C2215.59,-211.226 2129.65,-190.117 2073.62,-176.357"/>
</g>
<!-- passengers_lastname -->
<g id="node32" class="node"><title>passengers_lastname</title>
<ellipse fill="none" stroke="black" cx="2213.24" cy="-162" rx="87.1846" ry="18"/>
<text text-anchor="middle" x="2213.24" y="-158.3" font-family="Times New Roman,serif" font-size="14.00">passengers_lastname</text>
</g>
<!-- passengers&#45;&#45;passengers_lastname -->
<g id="edge25" class="edge"><title>passengers&#45;&#45;passengers_lastname</title>
<path fill="none" stroke="black" d="M2281.75,-215.697C2267.43,-204.684 2248.99,-190.5 2234.85,-179.622"/>
</g>
<!-- passengers_airline -->
<g id="node33" class="node"><title>passengers_airline</title>
<ellipse fill="none" stroke="black" cx="2395.24" cy="-162" rx="76.8869" ry="18"/>
<text text-anchor="middle" x="2395.24" y="-158.3" font-family="Times New Roman,serif" font-size="14.00">passengers_airline</text>
</g>
<!-- passengers&#45;&#45;passengers_airline -->
<g id="edge26" class="edge"><title>passengers&#45;&#45;passengers_airline</title>
<path fill="none" stroke="black" d="M2326.74,-215.697C2341.16,-204.603 2359.76,-190.291 2373.95,-179.383"/>
</g>
<!-- tickets_passenger6 -->
<g id="node34" class="node"><title>tickets_passenger6</title>
<ellipse fill="none" stroke="black" cx="2569.24" cy="-162" rx="79.0865" ry="18"/>
<text text-anchor="middle" x="2569.24" y="-158.3" font-family="Times New Roman,serif" font-size="14.00">tickets_passenger6</text>
</g>
<!-- passengers&#45;&#45;tickets_passenger6 -->
<g id="edge27" class="edge"><title>passengers&#45;&#45;tickets_passenger6</title>
<path fill="none" stroke="black" d="M2343.34,-222.671C2390.14,-210.311 2468.54,-189.6 2519.58,-176.119"/>
</g>
<!-- passengersANDtickets -->
<g id="node62" class="node"><title>passengersANDtickets</title>
<polygon fill="none" stroke="black" points="2798.24,-180 2666.86,-162 2798.24,-144 2929.62,-162 2798.24,-180"/>
<text text-anchor="middle" x="2798.24" y="-158.3" font-family="Times New Roman,serif" font-size="14.00">passengersANDtickets</text>
</g>
<!-- passengers&#45;&#45;passengersANDtickets -->
<g id="edge57" class="edge"><title>passengers&#45;&#45;passengersANDtickets</title>
<path fill="none" stroke="black" d="M2343.42,-227.449C2429.22,-215.29 2634.29,-186.232 2737.18,-171.652"/>
</g>
<!-- planefleet -->
<g id="node35" class="node"><title>planefleet</title>
<polygon fill="none" stroke="black" points="1509.74,-540 1440.74,-540 1440.74,-504 1509.74,-504 1509.74,-540"/>
<text text-anchor="middle" x="1475.24" y="-518.3" font-family="Times New Roman,serif" font-size="14.00">planefleet</text>
</g>
<!-- planefleet_airline_PK_NN -->
<g id="node36" class="node"><title>planefleet_airline_PK_NN</title>
<ellipse fill="none" stroke="black" cx="1250.24" cy="-450" rx="104.782" ry="18"/>
<text text-anchor="middle" x="1250.24" y="-446.3" font-family="Times New Roman,serif" font-size="14.00">planefleet_airline_PK_NN</text>
</g>
<!-- planefleet&#45;&#45;planefleet_airline_PK_NN -->
<g id="edge28" class="edge"><title>planefleet&#45;&#45;planefleet_airline_PK_NN</title>
<path fill="none" stroke="black" d="M1440.58,-510.216C1402.61,-498.404 1341.45,-479.374 1298.73,-466.085"/>
</g>
<!-- planefleet_plane_PK_NN -->
<g id="node37" class="node"><title>planefleet_plane_PK_NN</title>
<ellipse fill="none" stroke="black" cx="1475.24" cy="-450" rx="102.882" ry="18"/>
<text text-anchor="middle" x="1475.24" y="-446.3" font-family="Times New Roman,serif" font-size="14.00">planefleet_plane_PK_NN</text>
</g>
<!-- planefleet&#45;&#45;planefleet_plane_PK_NN -->
<g id="edge29" class="edge"><title>planefleet&#45;&#45;planefleet_plane_PK_NN</title>
<path fill="none" stroke="black" d="M1475.24,-503.697C1475.24,-492.846 1475.24,-478.917 1475.24,-468.104"/>
</g>
<!-- planefleet_nr_PK_NN -->
<g id="node38" class="node"><title>planefleet_nr_PK_NN</title>
<ellipse fill="none" stroke="black" cx="1687.24" cy="-450" rx="90.9839" ry="18"/>
<text text-anchor="middle" x="1687.24" y="-446.3" font-family="Times New Roman,serif" font-size="14.00">planefleet_nr_PK_NN</text>
</g>
<!-- planefleet&#45;&#45;planefleet_nr_PK_NN -->
<g id="edge30" class="edge"><title>planefleet&#45;&#45;planefleet_nr_PK_NN</title>
<path fill="none" stroke="black" d="M1509.78,-509.597C1545.91,-497.665 1602.79,-478.884 1642.38,-465.812"/>
</g>
<!-- planefleet_bought -->
<g id="node39" class="node"><title>planefleet_bought</title>
<ellipse fill="none" stroke="black" cx="1871.24" cy="-450" rx="75.2868" ry="18"/>
<text text-anchor="middle" x="1871.24" y="-446.3" font-family="Times New Roman,serif" font-size="14.00">planefleet_bought</text>
</g>
<!-- planefleet&#45;&#45;planefleet_bought -->
<g id="edge31" class="edge"><title>planefleet&#45;&#45;planefleet_bought</title>
<path fill="none" stroke="black" d="M1509.93,-515.472C1567.6,-506.202 1686.77,-486.695 1787.24,-468 1796.6,-466.258 1806.54,-464.324 1816.17,-462.404"/>
</g>
<!-- flights_airline7 -->
<g id="node40" class="node"><title>flights_airline7</title>
<ellipse fill="none" stroke="black" cx="893.243" cy="-450" rx="63.0888" ry="18"/>
<text text-anchor="middle" x="893.243" y="-446.3" font-family="Times New Roman,serif" font-size="14.00">flights_airline7</text>
</g>
<!-- planefleet&#45;&#45;flights_airline7 -->
<g id="edge32" class="edge"><title>planefleet&#45;&#45;flights_airline7</title>
<path fill="none" stroke="black" d="M1440.71,-518.946C1358.11,-513.7 1142.76,-498.053 965.243,-468 956.505,-466.521 947.247,-464.604 938.384,-462.593"/>
</g>
<!-- flights_planetype7 -->
<g id="node41" class="node"><title>flights_planetype7</title>
<ellipse fill="none" stroke="black" cx="1051.24" cy="-450" rx="76.8869" ry="18"/>
<text text-anchor="middle" x="1051.24" y="-446.3" font-family="Times New Roman,serif" font-size="14.00">flights_planetype7</text>
</g>
<!-- planefleet&#45;&#45;flights_planetype7 -->
<g id="edge33" class="edge"><title>planefleet&#45;&#45;flights_planetype7</title>
<path fill="none" stroke="black" d="M1440.51,-516.066C1379.04,-507.221 1247.08,-487.74 1136.24,-468 1126.76,-466.311 1116.71,-464.404 1106.96,-462.494"/>
</g>
<!-- planefleetANDflights -->
<g id="node63" class="node"><title>planefleetANDflights</title>
<polygon fill="none" stroke="black" points="2086.24,-468 1965.09,-450 2086.24,-432 2207.4,-450 2086.24,-468"/>
<text text-anchor="middle" x="2086.24" y="-446.3" font-family="Times New Roman,serif" font-size="14.00">planefleetANDflights</text>
</g>
<!-- planefleet&#45;&#45;planefleetANDflights -->
<g id="edge59" class="edge"><title>planefleet&#45;&#45;planefleetANDflights</title>
<path fill="none" stroke="black" d="M1509.9,-517.402C1588.94,-509.148 1788.55,-488.017 1955.24,-468 1978.35,-465.225 2003.73,-461.978 2025.95,-459.069"/>
</g>
<!-- planes -->
<g id="node42" class="node"><title>planes</title>
<polygon fill="none" stroke="black" points="3259.24,-684 3205.24,-684 3205.24,-648 3259.24,-648 3259.24,-684"/>
<text text-anchor="middle" x="3232.24" y="-662.3" font-family="Times New Roman,serif" font-size="14.00">planes</text>
</g>
<!-- planes_id_PK_NN -->
<g id="node43" class="node"><title>planes_id_PK_NN</title>
<ellipse fill="none" stroke="black" cx="3031.24" cy="-594" rx="79.0865" ry="18"/>
<text text-anchor="middle" x="3031.24" y="-590.3" font-family="Times New Roman,serif" font-size="14.00">planes_id_PK_NN</text>
</g>
<!-- planes&#45;&#45;planes_id_PK_NN -->
<g id="edge34" class="edge"><title>planes&#45;&#45;planes_id_PK_NN</title>
<path fill="none" stroke="black" d="M3205.14,-655.559C3171.06,-643.692 3112.23,-623.205 3072.54,-609.383"/>
</g>
<!-- planes_manufacturer_NN -->
<g id="node44" class="node"><title>planes_manufacturer_NN</title>
<ellipse fill="none" stroke="black" cx="3232.24" cy="-594" rx="103.182" ry="18"/>
<text text-anchor="middle" x="3232.24" y="-590.3" font-family="Times New Roman,serif" font-size="14.00">planes_manufacturer_NN</text>
</g>
<!-- planes&#45;&#45;planes_manufacturer_NN -->
<g id="edge35" class="edge"><title>planes&#45;&#45;planes_manufacturer_NN</title>
<path fill="none" stroke="black" d="M3232.24,-647.697C3232.24,-636.846 3232.24,-622.917 3232.24,-612.104"/>
</g>
<!-- planes_type_NN -->
<g id="node45" class="node"><title>planes_type_NN</title>
<ellipse fill="none" stroke="black" cx="3425.24" cy="-594" rx="71.4873" ry="18"/>
<text text-anchor="middle" x="3425.24" y="-590.3" font-family="Times New Roman,serif" font-size="14.00">planes_type_NN</text>
</g>
<!-- planes&#45;&#45;planes_type_NN -->
<g id="edge36" class="edge"><title>planes&#45;&#45;planes_type_NN</title>
<path fill="none" stroke="black" d="M3259.49,-655.119C3292.53,-643.135 3348.47,-622.846 3386.12,-609.191"/>
</g>
<!-- planes_lengthoverall -->
<g id="node46" class="node"><title>planes_lengthoverall</title>
<ellipse fill="none" stroke="black" cx="3598.24" cy="-594" rx="83.6854" ry="18"/>
<text text-anchor="middle" x="3598.24" y="-590.3" font-family="Times New Roman,serif" font-size="14.00">planes_lengthoverall</text>
</g>
<!-- planes&#45;&#45;planes_lengthoverall -->
<g id="edge37" class="edge"><title>planes&#45;&#45;planes_lengthoverall</title>
<path fill="none" stroke="black" d="M3259.45,-659.796C3318.02,-648.595 3457.21,-621.973 3537.78,-606.564"/>
</g>
<!-- planes_span -->
<g id="node47" class="node"><title>planes_span</title>
<ellipse fill="none" stroke="black" cx="3756.24" cy="-594" rx="55.7903" ry="18"/>
<text text-anchor="middle" x="3756.24" y="-590.3" font-family="Times New Roman,serif" font-size="14.00">planes_span</text>
</g>
<!-- planes&#45;&#45;planes_span -->
<g id="edge38" class="edge"><title>planes&#45;&#45;planes_span</title>
<path fill="none" stroke="black" d="M3259.34,-663.21C3330.59,-658.217 3528.83,-642.459 3691.24,-612 3699.27,-610.495 3707.76,-608.542 3715.87,-606.498"/>
</g>
<!-- freightplanes_id8 -->
<g id="node48" class="node"><title>freightplanes_id8</title>
<ellipse fill="none" stroke="black" cx="3903.24" cy="-594" rx="72.5877" ry="18"/>
<text text-anchor="middle" x="3903.24" y="-590.3" font-family="Times New Roman,serif" font-size="14.00">freightplanes_id8</text>
</g>
<!-- planes&#45;&#45;freightplanes_id8 -->
<g id="edge39" class="edge"><title>planes&#45;&#45;freightplanes_id8</title>
<path fill="none" stroke="black" d="M3259.38,-663.668C3343.3,-659.312 3605.93,-643.898 3821.24,-612 3831.02,-610.551 3841.39,-608.673 3851.35,-606.695"/>
</g>
<!-- passengerplanes_id8 -->
<g id="node49" class="node"><title>passengerplanes_id8</title>
<ellipse fill="none" stroke="black" cx="4080.24" cy="-594" rx="85.5853" ry="18"/>
<text text-anchor="middle" x="4080.24" y="-590.3" font-family="Times New Roman,serif" font-size="14.00">passengerplanes_id8</text>
</g>
<!-- planes&#45;&#45;passengerplanes_id8 -->
<g id="edge40" class="edge"><title>planes&#45;&#45;passengerplanes_id8</title>
<path fill="none" stroke="black" d="M3259.36,-664.139C3357.42,-660.802 3702.71,-647.121 3985.24,-612 3996.47,-610.605 4008.38,-608.764 4019.83,-606.808"/>
</g>
<!-- planefleet_plane8 -->
<g id="node50" class="node"><title>planefleet_plane8</title>
<ellipse fill="none" stroke="black" cx="2229.24" cy="-594" rx="73.387" ry="18"/>
<text text-anchor="middle" x="2229.24" y="-590.3" font-family="Times New Roman,serif" font-size="14.00">planefleet_plane8</text>
</g>
<!-- planes&#45;&#45;planefleet_plane8 -->
<g id="edge41" class="edge"><title>planes&#45;&#45;planefleet_plane8</title>
<path fill="none" stroke="black" d="M3204.98,-664.891C3093.58,-664.136 2662.17,-658.219 2311.24,-612 2301.3,-610.69 2290.76,-608.851 2280.66,-606.864"/>
</g>
<!-- planesANDfreightplanes -->
<g id="node64" class="node"><title>planesANDfreightplanes</title>
<polygon fill="none" stroke="black" points="2460.24,-612 2320.32,-594 2460.24,-576 2600.17,-594 2460.24,-612"/>
<text text-anchor="middle" x="2460.24" y="-590.3" font-family="Times New Roman,serif" font-size="14.00">planesANDfreightplanes</text>
</g>
<!-- planes&#45;&#45;planesANDfreightplanes -->
<g id="edge61" class="edge"><title>planes&#45;&#45;planesANDfreightplanes</title>
<path fill="none" stroke="black" d="M3205.2,-662.978C3118.48,-656.436 2839.59,-634.934 2609.24,-612 2582.95,-609.382 2554.08,-606.167 2528.81,-603.241"/>
</g>
<!-- planesANDpassengerplanes -->
<g id="node65" class="node"><title>planesANDpassengerplanes</title>
<polygon fill="none" stroke="black" points="2776.24,-612 2618.05,-594 2776.24,-576 2934.43,-594 2776.24,-612"/>
<text text-anchor="middle" x="2776.24" y="-590.3" font-family="Times New Roman,serif" font-size="14.00">planesANDpassengerplanes</text>
</g>
<!-- planes&#45;&#45;planesANDpassengerplanes -->
<g id="edge63" class="edge"><title>planes&#45;&#45;planesANDpassengerplanes</title>
<path fill="none" stroke="black" d="M3205.08,-660.831C3134.05,-649.926 2941.26,-620.331 2840.12,-604.806"/>
</g>
<!-- planesANDplanefleet -->
<g id="node66" class="node"><title>planesANDplanefleet</title>
<polygon fill="none" stroke="black" points="2014.24,-612 1890.91,-594 2014.24,-576 2137.58,-594 2014.24,-612"/>
<text text-anchor="middle" x="2014.24" y="-590.3" font-family="Times New Roman,serif" font-size="14.00">planesANDplanefleet</text>
</g>
<!-- planes&#45;&#45;planesANDplanefleet -->
<g id="edge65" class="edge"><title>planes&#45;&#45;planesANDplanefleet</title>
<path fill="none" stroke="black" d="M3204.94,-664.454C3082,-661.828 2567.59,-649.073 2147.24,-612 2122.78,-609.842 2095.89,-606.576 2072.73,-603.481"/>
</g>
<!-- tickets -->
<g id="node51" class="node"><title>tickets</title>
<polygon fill="none" stroke="black" points="2825.24,-108 2771.24,-108 2771.24,-72 2825.24,-72 2825.24,-108"/>
<text text-anchor="middle" x="2798.24" y="-86.3" font-family="Times New Roman,serif" font-size="14.00">tickets</text>
</g>
<!-- tickets_id_PK_NN -->
<g id="node52" class="node"><title>tickets_id_PK_NN</title>
<ellipse fill="none" stroke="black" cx="2417.24" cy="-18" rx="79.8859" ry="18"/>
<text text-anchor="middle" x="2417.24" y="-14.3" font-family="Times New Roman,serif" font-size="14.00">tickets_id_PK_NN</text>
</g>
<!-- tickets&#45;&#45;tickets_id_PK_NN -->
<g id="edge42" class="edge"><title>tickets&#45;&#45;tickets_id_PK_NN</title>
<path fill="none" stroke="black" d="M2770.85,-84.115C2719.12,-74.8693 2603.49,-54.1135 2506.24,-36 2496.5,-34.1854 2486.16,-32.2343 2476.11,-30.3239"/>
</g>
<!-- tickets_passenger_NN -->
<g id="node53" class="node"><title>tickets_passenger_NN</title>
<ellipse fill="none" stroke="black" cx="2608.24" cy="-18" rx="92.8835" ry="18"/>
<text text-anchor="middle" x="2608.24" y="-14.3" font-family="Times New Roman,serif" font-size="14.00">tickets_passenger_NN</text>
</g>
<!-- tickets&#45;&#45;tickets_passenger_NN -->
<g id="edge43" class="edge"><title>tickets&#45;&#45;tickets_passenger_NN</title>
<path fill="none" stroke="black" d="M2771.02,-78.9707C2739.21,-67.2515 2686.25,-47.7387 2649.41,-34.1661"/>
</g>
<!-- tickets_issued_NN -->
<g id="node54" class="node"><title>tickets_issued_NN</title>
<ellipse fill="none" stroke="black" cx="2798.24" cy="-18" rx="79.0865" ry="18"/>
<text text-anchor="middle" x="2798.24" y="-14.3" font-family="Times New Roman,serif" font-size="14.00">tickets_issued_NN</text>
</g>
<!-- tickets&#45;&#45;tickets_issued_NN -->
<g id="edge44" class="edge"><title>tickets&#45;&#45;tickets_issued_NN</title>
<path fill="none" stroke="black" d="M2798.24,-71.6966C2798.24,-60.8463 2798.24,-46.9167 2798.24,-36.1043"/>
</g>
<!-- tickets_rownr -->
<g id="node55" class="node"><title>tickets_rownr</title>
<ellipse fill="none" stroke="black" cx="2956.24" cy="-18" rx="60.3893" ry="18"/>
<text text-anchor="middle" x="2956.24" y="-14.3" font-family="Times New Roman,serif" font-size="14.00">tickets_rownr</text>
</g>
<!-- tickets&#45;&#45;tickets_rownr -->
<g id="edge45" class="edge"><title>tickets&#45;&#45;tickets_rownr</title>
<path fill="none" stroke="black" d="M2825.4,-76.9666C2852.76,-64.8487 2894.95,-46.1547 2923.99,-33.2902"/>
</g>
<!-- tickets_seatposition -->
<g id="node56" class="node"><title>tickets_seatposition</title>
<ellipse fill="none" stroke="black" cx="3117.24" cy="-18" rx="82.5854" ry="18"/>
<text text-anchor="middle" x="3117.24" y="-14.3" font-family="Times New Roman,serif" font-size="14.00">tickets_seatposition</text>
</g>
<!-- tickets&#45;&#45;tickets_seatposition -->
<g id="edge46" class="edge"><title>tickets&#45;&#45;tickets_seatposition</title>
<path fill="none" stroke="black" d="M2825.44,-83.0318C2877.5,-71.6088 2992.17,-46.4448 3061.25,-31.2863"/>
</g>
<!-- airlinesANDplanefleet&#45;&#45;planefleet -->
<g id="edge48" class="edge"><title>airlinesANDplanefleet&#45;&#45;planefleet</title>
<path fill="none" stroke="black" d="M717.665,-585.905C749.255,-582.747 787.126,-579.058 821.243,-576 1057.8,-554.793 1342.85,-532.974 1440.48,-525.607"/>
</g>
<!-- airportsANDflights&#45;&#45;flights -->
<g id="edge50" class="edge"><title>airportsANDflights&#45;&#45;flights</title>
<path fill="none" stroke="black" d="M800.434,-503.99C799.309,-483.576 800.979,-449.869 821.243,-432 866.48,-392.109 1302.73,-381.535 1416.97,-379.441"/>
</g>
<!-- countriesANDairlines&#45;&#45;airlines -->
<g id="edge52" class="edge"><title>countriesANDairlines&#45;&#45;airlines</title>
<path fill="none" stroke="black" d="M616.836,-725.362C571.725,-711.328 496.969,-688.07 456.797,-675.573"/>
</g>
<!-- countriesANDairports&#45;&#45;airports -->
<g id="edge54" class="edge"><title>countriesANDairports&#45;&#45;airports</title>
<path fill="none" stroke="black" d="M1059.84,-723.003C1077.87,-711.831 1103.22,-696.13 1122.49,-684.194"/>
</g>
<!-- flightsANDpassengers&#45;&#45;passengers -->
<g id="edge56" class="edge"><title>flightsANDpassengers&#45;&#45;passengers</title>
<path fill="none" stroke="black" d="M2304.24,-287.697C2304.24,-276.846 2304.24,-262.917 2304.24,-252.104"/>
</g>
<!-- passengersANDtickets&#45;&#45;tickets -->
<g id="edge58" class="edge"><title>passengersANDtickets&#45;&#45;tickets</title>
<path fill="none" stroke="black" d="M2798.24,-143.697C2798.24,-132.846 2798.24,-118.917 2798.24,-108.104"/>
</g>
<!-- planefleetANDflights&#45;&#45;flights -->
<g id="edge60" class="edge"><title>planefleetANDflights&#45;&#45;flights</title>
<path fill="none" stroke="black" d="M2026.28,-440.89C2003.99,-437.962 1978.48,-434.712 1955.24,-432 1770.53,-410.44 1547.73,-388.842 1471.41,-381.57"/>
</g>
<!-- planesANDfreightplanes&#45;&#45;freightplanes -->
<g id="edge62" class="edge"><title>planesANDfreightplanes&#45;&#45;freightplanes</title>
<path fill="none" stroke="black" d="M2460.24,-575.697C2460.24,-564.846 2460.24,-550.917 2460.24,-540.104"/>
</g>
<!-- planesANDpassengerplanes&#45;&#45;passengerplanes -->
<g id="edge64" class="edge"><title>planesANDpassengerplanes&#45;&#45;passengerplanes</title>
<path fill="none" stroke="black" d="M2776.24,-575.697C2776.24,-564.846 2776.24,-550.917 2776.24,-540.104"/>
</g>
<!-- planesANDplanefleet&#45;&#45;planefleet -->
<g id="edge66" class="edge"><title>planesANDplanefleet&#45;&#45;planefleet</title>
<path fill="none" stroke="black" d="M1952.41,-584.97C1838.62,-570.192 1599.51,-539.139 1510.03,-527.518"/>
</g>
</g>
</svg>
